<svg width="400" height="200" viewBox="0 0 400 200" fill="none" xmlns="http://www.w3.org/2000/svg">
  <g transform="translate(50, 50)">
    <path d="M20 60C20 50 30 40 50 40H250C270 40 280 50 280 60V120C280 130 270 140 250 140H50C30 140 20 130 20 120V60Z" fill="#D1D5DB" stroke="#9CA3AF" stroke-width="2"/>
    <circle cx="80" cy="140" r="20" fill="#374151"/>
    <circle cx="220" cy="140" r="20" fill="#374151"/>
    <rect x="100" y="70" width="100" height="30" rx="5" fill="#9CA3AF"/>
    <path d="M40 80C40 75 45 70 50 70H70V100H50C45 100 40 95 40 90V80Z" fill="#9CA3AF"/>
    <path d="M230 70H250C255 70 260 75 260 80V90C260 95 255 100 250 100H230V70Z" fill="#9CA3AF"/>
  </g>
</svg> 